<?xml version="1.0" encoding="UTF-8"?>
<!DOCTYPE svg PUBLIC "-//W3C//DTD SVG 1.1//EN" "http://www.w3.org/Graphics/SVG/1.1/DTD/svg11.dtd">
<!-- Creator: CorelDRAW -->
<svg xmlns="http://www.w3.org/2000/svg" xml:space="preserve" width="33.346mm" height="6.1877mm" version="1.1" style="shape-rendering:geometricPrecision; text-rendering:geometricPrecision; image-rendering:optimizeQuality; fill-rule:evenodd; clip-rule:evenodd"
viewBox="0 0 3334.68 618.78"
 xmlns:xlink="http://www.w3.org/1999/xlink"
 xmlns:xodm="http://www.corel.com/coreldraw/odm/2003">
 <defs>
  <style type="text/css">
   <![CDATA[
    .fil0 {fill:#6640F4;fill-rule:nonzero}
   ]]>
  </style>
 </defs>
 <g id="Layer_x0020_1">
  <metadata id="CorelCorpID_0Corel-Layer"/>
  <g id="_2913152666832">
   <g>
    <g>
     <path class="fil0" d="M686.82 549.7c0,0 0,-0.59 0,-0.59 0,-1.21 0.62,-2.42 0.62,-3.05 0,0 0,-0.59 0,-0.59 0.62,-2.42 0.62,-4.22 1.21,-6.64 0,0 0,-0.59 0,-0.59 1.21,-3.63 1.8,-7.27 3.01,-10.87 0.62,-1.21 0.62,-2.42 1.21,-3.05 0,0 0,-0.59 0,-0.59 0,0 0,-0.62 0,-0.62 0,0 0,-0.59 0,-0.59l0 -0.62 0 -0.59 0 -0.62 0 -0.59c0.59,-1.21 0.59,-1.84 1.21,-3.05l0 -0.59 0 -0.62 0 -0.59 0 -0.62 0.59 -2.42 0 -0.62 0 -0.62 0 -0.59 0 -0.62 0.62 -1.21 0 -0.62 0 -0.59 0 -0.62 0 -0.62 0 -0.59 0 -0.62 0.59 -0.59 0 -0.62 0.62 -0.59 0 -0.62 0.59 -0.59 0 -0.62 0.62 -0.59 0.59 -0.62 0.62 -0.59 0.62 -0.62 0.59 -0.62 0.62 -0.59 0.59 -0.62 0.62 -0.59 0.59 -0.62 0.62 -0.59 0.59 -1.21 0.62 -1.21 0.59 -1.21 0.62 -1.21 0 -0.59 0 -0.62 0 -0.59 0 -0.62 0 -0.59 0 -0.62 0 -0.59 0 -0.62 0 -0.59c0.59,-1.21 1.21,-3.05 2.42,-4.22 0.59,-0.62 0.59,-1.21 1.21,-2.42 0.62,-1.84 1.84,-3.63 2.42,-5.43 -10.87,-8.44 -16.92,-25.4 -21.77,-38.69l-1.21 -3.01c-6.06,-16.92 -10.87,-33.26 -14.5,-48.97 -18.72,-83.99 -0.62,-154.11 24.78,-206.09 20.56,-41.7 45.34,-71.91 58.63,-87.63l1.21 -1.21 0.62 -0.59c-7.86,-3.63 -18.72,-6.64 -30.84,-9.65 -19.93,-4.85 -41.7,-8.44 -54.4,-9.07 -7.86,-0.59 -15.71,-0.59 -22.98,-0.59 -12.08,0 -22.94,0.59 -33.22,1.8 -16.92,1.8 -33.22,4.85 -51.36,9.65 -25.4,6.64 -25.4,6.64 -26.61,7.23 -1.8,1.21 -4.22,3.63 -16.34,9.07 -19.93,9.07 -38.07,19.93 -54.99,32.05 -15.71,11.49 -30.21,24.78 -43.54,38.69 0,0 0,0 0,0 0,0 0,0.62 0,0.62 0,0.59 0.62,1.21 0.62,1.8 0,0 0,0 0,0 0,0 0,0.62 0,0.62 0,0 0,0 0,0 0,0 0,0 0,0 0.59,1.21 0.59,1.8 1.21,3.01 0,0 0,0.59 0,0.59 0,0 0,0.62 0,0.62 0,0 0,0.62 0.59,1.21 0,0 0,0 0,0 0,0 0,0 0,0.59 15.12,36.86 46.55,112.4 18.13,223.06 -3.01,12.08 -9.07,25.99 -15.12,39.28 -0.59,1.84 -1.21,3.05 -2.42,4.85 0,0 0,0 0,0l0 0.59 0 0.62 0 0.62 0 0.59 0 0.62 0 0.59 0 0.62 0 0.59 0 0.62 0 0.59 0 0.62 0 0.59 0 0.62 0 0.59 0 0.62 0 0.59 0 0.62 0 0.62c0,0 0,0 0,0l0 0.59 0 0.62 0 0.59 0 0.62 0 0.59 0 0.62 0 0.59c8.44,6.64 15.71,13.29 22.36,19.93 18.13,17.55 36.86,35.64 88.25,55.61 27.2,10.87 48.93,17.55 71.33,21.14 21.14,3.63 43.5,4.22 70.7,2.42 0,-0.59 0,-0.59 0,-1.21 5.43,0.04 6.02,-2.39 6.02,-5.43l0.03 0zm107.53 -239.06c0.04,6.94 3.3,13.91 10.94,17.84 -7.75,-3.78 -10.98,-10.79 -10.94,-17.84zm10.94 17.84c1.62,0.73 3.27,1.28 4.88,1.62 -1.69,-0.29 -3.34,-0.84 -4.88,-1.62zm18.57 -9.51c-1.36,1.47 -3.3,2.61 -5.87,3.49 -3.01,0.59 -6.64,0.59 -9.65,-0.62 -5.43,-2.42 -7.23,-7.23 -6.64,-12.08 0,-1.8 0.62,-4.22 1.84,-6.06 0.59,-1.84 1.8,-3.05 3.01,-4.22l0.04 -0.04c-0.99,1.03 -1.95,2.13 -2.46,3.67 -0.62,1.84 -1.21,3.63 -1.84,6.06 -0.59,4.85 1.21,9.65 6.64,12.08 3.01,1.8 6.64,1.8 9.65,0.59 1.91,-0.37 3.82,-1.51 5.29,-2.86l-0.01 -0.01zm5.62 -31.6c-1.8,-1.21 -3.63,-1.8 -4.85,-1.8 -10.87,-6.06 -20.56,-3.63 -27.83,2.42 -3.01,2.42 -5.43,5.43 -7.23,9.07 -1.8,3.63 -3.01,7.23 -3.01,11.49 -0.62,10.28 3.63,21.73 15.12,27.2 6.64,3.63 13.91,3.63 20.56,1.84 7.23,-1.84 13.29,-6.64 16.34,-12.7 12.08,-22.36 -0.62,-33.22 -9.07,-37.48l-0.03 -0.04zm13.29 -41.71c13.29,7.86 24.78,14.5 33.22,30.84 2.42,4.85 4.22,9.65 6.06,14.5 14.5,-19.35 36.27,-39.28 57.41,-56.2 -6.06,-12.7 -12.08,-24.19 -16.92,-31.42 -9.07,-14.5 -20.56,-29 -32.63,-42.33 -6.64,-7.23 -13.91,-14.5 -20.56,-20.56 -1.21,6.64 -5.43,13.91 -10.28,22.36 -6.64,11.49 -15.71,26.58 -22.36,51.36 -2.42,8.44 -3.63,13.91 -3.01,18.72 0,0 0,0.59 0,0.59 0,0.62 0,1.84 0.62,2.42 0,0.59 0,0.59 0.59,1.21 0,0.59 0.62,1.21 0.62,1.8 0,0.62 0.59,1.21 0.59,1.21 0,0.62 0.62,0.62 0.62,1.21 0.59,0.59 1.21,1.21 1.21,1.8 0,0 0,0 0,0l4.85 2.42 -0.03 0.07zm-432.16 210.36c0.62,1.21 1.84,2.42 2.42,3.63 -0.62,-1.21 -1.8,-2.42 -2.42,-3.63zm3.64 6.06c0,-0.59 -0.62,-1.21 -0.62,-1.21 0,0.62 0.62,1.21 0.62,1.21 0,0 0,0 0,0zm-40.49 -60.43c3.05,6.06 6.64,12.08 10.28,18.13 3.63,5.43 6.64,10.87 10.28,15.71 3.05,4.22 5.43,7.23 8.44,10.87 1.21,1.21 2.42,3.01 3.63,4.22 -1.21,-1.21 -2.42,-3.01 -3.63,-4.22 -3.01,-3.63 -5.43,-6.64 -8.44,-10.87 -3.63,-4.85 -6.64,-10.28 -10.28,-15.71 -3.63,-6.06 -6.64,-12.08 -10.28,-18.13 -6.06,-11.49 -13.91,-27.2 -19.35,-44.12 -1.21,-3.01 -2.42,-6.64 -3.01,-9.65 0,0 0,0 0,0 1.21,3.01 1.8,6.64 3.01,9.65 6.06,16.34 13.91,32.63 19.35,44.12zm33.25 49.56c1.21,1.21 1.8,2.42 3.01,3.63 -1.21,-1.21 -1.84,-2.42 -3.01,-3.63zm-75.54 -24.15c4.22,-10.28 7.23,-19.93 10.28,-30.84l0 -0.62c1.21,-4.85 2.42,-10.28 3.63,-15.12 0.59,-0.62 0.59,-1.21 0.59,-1.84 0.37,-1.43 0.73,-2.97 1.06,-4.52 0.51,-2.86 0.99,-5.76 1.62,-8.52 0.15,-0.92 0.26,-1.8 0.33,-2.68l0.04 -0.22 0 0c0.44,-3.6 0.92,-7.49 1.36,-11.23 0,-1.03 -0.04,-2.02 -0.15,-3.05 0,0 0,-0.59 0,-0.59 0.11,0.55 0.26,1.14 0.4,1.73l0.22 -1.73c0,0.77 -0.04,1.54 -0.07,2.31 0.66,2.46 1.58,5.07 2.5,7.38 6.06,16.92 13.91,32.63 19.93,44.12 3.05,6.06 6.64,12.08 10.28,18.13 3.63,5.43 6.64,10.87 10.28,15.71 3.05,4.22 5.43,7.23 8.44,10.87 1.21,1.21 2.42,3.01 3.63,4.22 0,0 0.62,0.59 0.62,0.59 1.21,1.21 1.8,2.42 3.01,3.63 0,0.59 0.62,0.59 0.62,1.21 1.21,1.21 1.8,2.42 2.42,3.63 0,0 0.62,0.59 0.62,1.21 0,0.62 0.59,1.21 0.59,1.84 -12.7,20.56 -24.78,37.48 -38.07,52.57 -13.91,15.71 -29.62,30.21 -49.56,44.71 -15.71,11.49 -45.92,28.41 -76.76,40.49 -22.36,9.07 -44.71,15.12 -61.05,13.91 -9.65,-1.21 -16.92,0 -24.78,1.21 -7.86,1.21 -16.92,2.42 -30.21,1.8 3.01,-1.21 5.43,-1.8 7.86,-3.01l0 0c21.14,-8.44 42.33,-19.35 54.99,-26.58 21.11,-12.26 41.26,-27.9 59.65,-46.11 -18.24,17.99 -38.18,33.41 -59.03,45.52 -12.7,7.27 -33.85,18.13 -54.99,26.61 -2.42,1.21 -5.43,1.8 -7.86,3.01 0,0 0,0 0,0 2.42,-0.59 4.85,-1.8 7.86,-3.01 21.14,-8.44 42.33,-19.35 54.99,-26.61 20.89,-12.11 40.82,-27.53 59.07,-45.52 20.59,-20.41 38.95,-44.05 53.96,-69.89 0.4,-0.59 0.84,-1.17 1.21,-1.76 1.25,-2.35 2.61,-4.55 3.93,-6.79 0.92,-1.76 1.84,-3.52 2.72,-5.32 0.15,0 0.26,-0.04 0.37,-0.07l0.26 -0.51 0 0c1.62,-2.83 2.94,-5.91 4.41,-9.1 -1.36,2.97 -2.86,5.84 -4.41,8.48 2.42,-4.85 4.85,-9.07 6.64,-13.91 -0.59,1.58 -1.25,3.12 -1.95,4.66 0.62,-1.36 1.25,-2.72 1.91,-4.07 0.62,-0.62 0.62,-0.62 0.62,-1.21 0.51,-1.36 1.06,-2.72 1.65,-4.07 -0.51,1.17 -1.06,2.31 -1.65,3.49 0.62,-1.21 1.17,-2.42 1.73,-3.63l0.04 -0.07 0.07 -0.15 0.77 -1.8 0.04 -0.07c1.21,-2.94 2.31,-5.84 3.41,-8.77l-0.09 -0.05zm10.28 -30.84c-0.22,0.95 -0.44,1.91 -0.66,2.86l0.66 -2.28 0 -0.59 0 0.01zm-7.13 23.16c-0.99,2.61 -2.06,5.14 -3.16,7.64 -1.06,2.86 -2.17,5.73 -3.38,8.63 1.17,-2.68 2.35,-5.32 3.34,-8 0,0 0,0 0,0 1.14,-2.75 2.17,-5.51 3.16,-8.26l0.04 -0.01zm-16.44 37.89l-0.26 0.48c0.22,-0.15 0.26,-0.44 0.26,-0.48zm30.83 -94.31c0,0.62 0,0.62 0,0l0 0zm0.04 -0.22l0.04 -0.22 0.04 -0.22 0.04 -0.22 0.04 -0.22 0 0 0.04 -0.22 0.04 -0.22 0 0 0.04 -0.22 0.04 -0.22 0.04 -0.22 0 0 0.04 -0.22 0 0 -0.33 2.28 -0.07 -0.08zm-20.96 73.05l0.07 -0.15 -0.07 0.15zm395.66 58.92c1.84,-3.01 3.05,-6.06 4.22,-9.07 -1.21,3.05 -2.42,6.06 -4.22,9.07zm6.65 -13.29c0,0 0,0 0,0 0,0 0,0 0,0zm149.3 -139.02c-1.21,0.62 -1.8,0.62 -3.01,1.21 -1.8,2.42 -3.63,4.85 -4.85,6.64 -9.07,12.7 -15.12,19.93 -39.28,27.2 -7.23,4.22 -11.49,4.85 -15.71,4.85 -3.01,0 -6.06,0.62 -14.5,8.44 -3.63,3.63 -6.64,6.06 -9.65,9.07 -5.43,4.85 -10.28,9.07 -15.71,15.12 -7.86,8.44 -15.71,18.13 -23.57,27.79 -6.06,8.44 -12.08,17.55 -16.92,25.99 -1.84,4.22 -3.63,8.44 -5.43,12.7 0,0 0,0 0,0 -0.62,1.21 -1.21,3.05 -1.84,4.22 -1.21,3.05 -3.01,6.06 -4.22,9.07 0,0 0,0.62 -0.59,0.62 -9.07,18.13 -18.72,37.48 -21.77,59.21l6.06 0.59c10.28,0.62 24.19,-2.42 39.28,-7.23 21.77,-6.64 44.12,-16.34 56.2,-22.98 14.5,-7.86 28.41,-16.34 39.9,-24.78 12.08,-9.07 22.94,-18.13 32.05,-27.2 17.55,-16.92 41.7,-47.13 59.84,-81.61 10.87,-20.56 19.93,-41.7 24.19,-62.26 -30.21,9.65 -62.26,16.92 -80.39,13.29l-0.08 0.05zm-114.21 61.64c6.06,-6.06 11.49,-10.87 16.92,-15.71 3.01,-3.05 6.64,-5.43 9.65,-8.48 1.21,-1.21 2.42,-2.42 3.63,-3.01 -10.87,-2.42 -19.93,-7.23 -27.79,-13.91 -12.08,-10.28 -19.93,-24.15 -21.77,-42.33 -0.59,-4.85 -0.59,-9.07 -0.59,-14.5 0,-2.42 0,-4.85 0.59,-7.23 2.42,-18.72 11.49,-33.85 24.78,-44.12 12.7,-9.65 29.62,-14.5 48.35,-14.5 0,0 0,0 0,0 0,-0.62 -0.62,-1.84 -0.62,-2.42 0,-0.59 0,-1.21 0,-1.8 0,-0.62 0,-1.21 -0.59,-2.42 -0.62,-6.64 1.21,-13.91 3.63,-23.57 7.27,-27.2 16.92,-42.91 23.57,-54.99 0,0 0,0 0,0 2.42,-4.22 4.22,-7.86 6.06,-10.87 0,-0.62 0.59,-0.62 0.59,-1.21 0,-0.62 0.62,-1.21 0.62,-1.8 0,-0.62 0.62,-1.21 0.62,-1.84 0,-0.59 0,-1.21 0.59,-1.8 0,-0.62 0,-1.21 0,-1.84 0,-0.59 0,-1.21 0,-1.8 0,-0.62 0,-1.21 0,-1.8 0,-0.62 0,-1.21 -0.59,-1.84 0,-0.59 0,-1.21 -0.62,-1.8 0,-0.62 -0.62,-1.21 -1.21,-2.42 0,-0.59 -0.59,-0.59 -0.59,-1.21 -10.28,-7.86 -24.78,-18.13 -39.28,-26.58 -9.65,-5.43 -19.35,-10.28 -27.79,-12.7 -1.84,2.42 -3.63,4.85 -6.64,7.86 -30.84,37.48 -130.54,157.15 -65.89,327.61l1.21 3.01c4.22,10.28 8.44,23.57 15.12,30.21 4.22,-6.64 9.07,-13.91 13.91,-20.56 7.86,-10.87 16.34,-21.14 24.19,-29.62l-0.06 0zm-414.02 -113.62c0,0.62 0,1.84 0,2.42 0,-1.21 0,-1.8 0,-2.42zm0 7.86c0,-0.62 0,-0.62 0,-1.21 0,0 0,0.59 0,1.21zm-25.36 -114.83c-18.72,-42.29 -44.12,-78.56 -75.55,-108.81 -31.42,-29.62 -68.9,-52.57 -113.03,-68.9 -3.63,-1.21 -7.86,-2.42 -12.7,-3.63 0,0 0,0 0,0 4.22,1.21 8.44,2.42 12.7,4.22 43.5,16.34 81.61,39.28 113.03,68.9 31.42,29.04 56.83,65.27 75.55,108.18 6.06,13.91 15.12,41.11 20.56,67.69 0.59,3.63 1.8,7.86 2.42,11.49 -0.59,-3.63 -1.21,-7.86 -2.42,-11.49 -5.43,-26.61 -14.5,-54.4 -20.56,-67.69l0 0.04zm24.78 91.89c0,-1.21 -0.62,-3.01 -0.62,-4.22 0,1.21 0,2.42 0.62,4.22zm0.58 6.05c0,-1.21 0,-2.42 -0.59,-3.63 0,1.21 0,2.42 0.59,3.63zm-1.8 -12.7c0,-1.21 -0.62,-3.01 -0.62,-4.22 0,1.21 0.62,3.05 0.62,4.22zm1.8 18.72c0,-1.21 0,-2.42 0,-3.01 0,0.59 0,1.8 0,3.01zm8.48 25.55c0.04,1.51 0.48,2.57 0.59,3.96 -0.11,-1.51 -0.51,-2.94 -0.59,-3.96zm-2.42 -8.04c-1.84,-3.01 -3.05,-4.22 -6.06,-6.64l6.06 6.64zm-6.06 -6.64c2.64,2.13 4.37,3.3 5.54,5.58 -1.17,-2.28 -2.83,-3.56 -4.96,-6.2 0,-0.62 0,-0.62 0,-0.62 0,-0.59 0,-0.59 0,-1.21 0,-1.21 0,-3.01 0,-4.22 0,-0.59 0,-1.8 0,-2.42 0,-1.21 0,-1.84 0,-3.05 0,-0.59 0,-1.8 0,-3.01 0,-0.59 0,-1.8 0,-2.42 -0.62,-1.21 -0.62,-2.42 -0.62,-3.63 0,-0.62 0,-1.8 0,-2.42 0,-1.21 -0.59,-3.01 -0.59,-4.22 -0.62,-1.21 -0.62,-1.8 -0.62,-2.42 0,-1.21 -0.59,-3.01 -0.59,-4.22 0,-0.59 0,-1.21 0,-1.8 -0.62,-3.63 -1.8,-7.86 -2.42,-11.49 -5.43,-26.61 -14.5,-53.82 -20.56,-67.69 -18.72,-42.91 -44.12,-79.18 -75.55,-108.81 -31.42,-29.62 -69.49,-52.57 -113.03,-68.9 -4.22,-1.21 -8.44,-2.42 -12.7,-3.63 17.55,-1.8 38.07,-3.01 74.34,3.01 122.68,19.93 186.15,109.98 210.36,143.86 3.63,5.43 6.64,9.65 9.07,12.08 0,0 0,0.62 0,0.62 0,0.62 0.62,1.21 0.62,1.8 0.51,1.06 0.59,2.13 1.03,3.19 0.07,0.07 0.15,0.22 0.15,0.37l0.04 0.07c0.59,0.59 0.59,0.59 0.59,1.21 1.21,3.63 3.01,7.23 4.85,12.08 10.28,24.78 29,69.49 28.41,131.75 0,24.15 -3.63,51.36 -10.87,80.98 -2.42,10.87 -8.44,24.15 -13.91,36.86 -1.1,1.98 -2.13,3.96 -3.08,5.95 -0.7,1.62 -1.36,3.16 -2.06,4.63 -0.81,1.91 -1.51,3.82 -2.13,5.73 0,0 0,0 0,0 -0.15,-0.15 -0.26,-0.29 -0.37,-0.44l-0.22 0.44 0.22 -0.44c-0.48,-0.62 -0.95,-1.51 -1.43,-1.98 -0.62,-1.21 -1.21,-1.8 -1.84,-2.42 -1.21,-1.8 -3.01,-3.01 -4.22,-4.85 -3.01,-3.63 -5.43,-6.64 -7.86,-9.65 -3.01,-4.22 -6.64,-9.69 -9.65,-15.12 -3.01,-5.43 -6.64,-10.87 -9.65,-16.92 -5.43,-10.87 -13.29,-25.99 -18.72,-42.33 -4.22,-11.49 -7.23,-23.57 -8.44,-33.85l0 -0.62 0 -0.07 0 -0.07 0 -0.07 0 0 0 -0.07 0 0 0 -0.07 0 0 0 -0.07 0 -0.04 0 -0.07 0 -0.04 0 -0.07 0 -0.04 -9.03 -18.65 -0.09 0.12zm8.48 14.68l0 0 0 -0.04 0 -0.04 0 -0.04 0 -0.04 0 -0.62 -0.04 -0.15 -0.04 -0.15 -0.04 -0.15 0 0 -0.04 -0.15 0 0 -0.04 -0.15 0 0c-0.55,-2.61 -1.17,-4.33 -2.28,-6.53l2.42 8.04 0.06 0.02zm59.22 -152.49c0,0.59 0,1.21 0.62,1.8 -0.62,-0.59 -0.62,-1.21 -0.62,-1.8zm-61.64 144.45l-0.07 -0.15 -0.07 -0.15 -0.07 -0.15 -0.07 -0.15 -0.07 -0.15 -0.07 -0.15 -0.07 -0.11 -0.07 -0.15 0 0 0.48 1.06 0.08 0.1zm-102.16 -9.65l-18.13 -1.84c6.64,1.21 12.7,1.84 18.13,1.84zm79.18 1.8c0.59,0 1.21,-0.59 1.8,-0.59 0,0 0,0 0,0 -0.59,0.59 -1.21,0.59 -1.8,0.59zm-70.11 -1.21c0,0 0,0 0,0 19.93,2.42 51.36,6.06 68.28,1.84 -16.92,4.22 -48.35,0.59 -68.28,-1.84zm67.1 -41.71c-5.43,-25.4 -13.91,-51.98 -19.35,-64.68 -18.13,-40.49 -42.33,-75.55 -71.91,-103.96 -30.21,-28.41 -65.89,-50.15 -107.6,-65.89 -7.23,-2.42 -16.92,-4.85 -26.58,-7.23 -7.86,-1.84 -15.71,-3.63 -21.77,-6.06 0,0 0,0 0,0 -1.8,-0.59 -4.22,-1.21 -6.06,-2.42 0,0 0,0 0,0 -13.91,-1.21 -27.83,-2.42 -41.11,-3.01 -11.49,-0.62 -23.57,0 -35.64,1.21 -2.42,47.76 12.7,96.69 38.07,140.23 29,50.18 71.33,92.47 116.63,117.25 13.29,7.23 35.64,18.72 58.04,25.99 7.86,3.01 15.71,4.85 23.57,6.64l18.72 1.84 0.62 0c3.63,0.59 6.06,0.59 8.44,1.21 0,0 0,0 0,0 19.93,2.42 51.36,6.06 68.32,1.8 0.59,0 0.59,0 1.21,-0.62 0.62,0 1.21,-0.59 1.84,-0.59 0,-10.28 -1.84,-25.99 -5.43,-41.7l-0.01 -0.01zm10.87 56.21c-0.62,0 -0.62,0 -1.21,0.59 -1.21,0.62 -2.42,0.62 -4.22,1.21 -0.62,0 -1.21,0 -1.84,0.62 -1.8,0.59 -3.01,0.59 -4.85,1.21 -0.62,0 -0.62,0 -1.21,0 -1.8,0 -4.22,0.59 -6.06,0.59 -0.62,0 -1.84,0 -2.42,0 -1.21,0 -3.01,0 -4.85,0 -0.59,0 -1.8,0 -2.42,0 -1.84,0 -3.63,0 -6.06,0 -1.21,0 -1.8,0 -3.01,0 -1.8,0 -3.01,0 -4.85,0 -1.21,0 -1.8,0 -3.01,0 -1.21,0 -3.01,0 -4.22,0 -0.59,0 -1.8,0 -2.42,0 -2.42,0 -4.85,-0.59 -7.23,-0.59 0,0 0,0 0,0l7.86 6.64 -19.35 0.62c-14.5,0.59 -32.63,4.85 -51.39,10.87 -22.94,7.23 -45.34,16.92 -59.21,24.19 -30.84,16.92 -58.63,38.69 -81.61,64.65 -22.94,25.4 -41.7,54.4 -54.99,87.04 -6.64,15.12 -15.71,41.7 -20.56,67.69 -3.01,15.12 -4.22,30.21 -2.42,42.91 16.3,0.62 32.63,-0.59 48.35,-1.21 4.22,-0.59 9.07,-0.59 13.29,-0.59l33.85 -4.22c10.87,-1.21 24.78,-6.06 39.28,-11.49 20.56,-8.44 41.11,-18.72 53.19,-25.99 42.91,-24.78 80.98,-63.47 108.18,-110.02 25.37,-43.5 40.49,-93.68 39.9,-144.45l0 -4.85 3.63 -1.84c0.59,0 0.59,-0.59 1.21,-0.59 0,0 0.62,0 0.62,-0.62 0,-1.8 0,-1.8 0,-2.42 0,0.59 0,0.59 0,0l0.05 0.05z"/>
    </g>
   </g>
   <g>
    <path class="fil0" d="M3334.63 249.23c0,20.89 -5.07,36.16 -15.42,45.7 -10.24,9.69 -24.85,14.46 -43.68,14.46 -2.72,0 -6.53,0.15 -11.45,0.55 -4.92,0.4 -10.24,1.51 -15.82,3.27 -5.58,1.76 -11.2,4.22 -16.92,7.64 -5.73,3.27 -11.05,7.78 -15.82,13.51 -4.77,5.73 -8.59,13.11 -11.6,21.84 -2.86,8.74 -4.37,19.38 -4.37,31.64l0 114.39c0,10.9 -0.55,21.55 -1.76,31.94 -1.25,10.5 -3.96,19.79 -8.19,27.83 -4.22,8.19 -10.35,14.76 -18.28,19.79 -8.04,5.07 -18.83,7.64 -32.34,7.64 -13.25,0 -23.75,-2.61 -31.53,-7.64 -7.64,-5.03 -13.51,-11.6 -17.58,-19.79 -4.22,-8.19 -6.83,-17.47 -8.04,-27.83 -1.25,-10.39 -1.76,-21.03 -1.76,-32.08l0 -224.23c0,-11.2 0.55,-21.95 1.76,-32.63 1.21,-10.5 3.82,-19.93 8.04,-28.27 4.07,-8.19 9.95,-14.87 17.58,-19.79 7.78,-4.92 18.28,-7.38 31.53,-7.38 13.51,0 24.01,3.01 31.24,8.99 7.38,6.02 12.7,13.8 16.23,23.2 3.41,9.43 5.47,19.93 5.87,31.53 0.55,11.6 0.81,22.94 0.81,33.85l6.42 0c3.71,-15.01 8.74,-28.52 14.76,-40.53 6.13,-12.15 12.96,-22.5 20.48,-30.84 7.53,-8.44 15.42,-14.87 24.01,-19.38 8.44,-4.52 17.07,-6.83 25.51,-6.83 10.39,0 18.83,1.1 25.4,3.41 6.53,2.31 11.75,5.87 15.42,10.65 3.67,4.77 6.28,10.9 7.64,18.43 1.25,7.49 1.91,16.52 1.91,26.87l-0.05 0.08z"/>
    <path class="fil0" d="M2776.97 351.98l99.89 0c0,-12.41 -0.29,-23.49 -0.95,-33.15 -0.7,-9.69 -2.72,-17.77 -5.98,-24.45 -3.41,-6.53 -8.59,-11.6 -15.56,-15.01 -7.08,-3.41 -17.22,-5.18 -30.29,-5.18 -10.9,0 -19.38,1.76 -25.66,5.18 -6.28,3.41 -11.05,7.78 -14.21,12.81 -3.27,5.18 -5.18,10.65 -5.98,16.52 -0.81,5.87 -1.25,10.9 -1.25,15.42l0 27.83 -0.01 0.03zm216.19 9.44c0,4.37 -0.26,9.29 -0.81,15.01 -0.55,5.73 -2.61,11.2 -6.13,16.37 -3.67,5.18 -9.29,9.69 -17.07,13.36 -7.78,3.67 -18.69,5.58 -32.89,5.58l-159.25 0 0 38.36c0,6.42 0.81,13.11 2.46,19.93 1.51,6.97 4.22,13.36 8.19,19.24 3.82,5.87 8.99,10.65 15.42,14.35 6.28,3.67 14.21,5.58 23.49,5.58 10.79,0 18.94,-1.25 24.71,-3.82 5.73,-2.46 10.24,-5.62 13.66,-9.29 3.27,-3.71 6.28,-7.64 8.88,-11.89 2.72,-4.22 6.28,-8.19 10.65,-11.86 4.37,-3.67 10.5,-6.83 18.43,-9.29 7.89,-2.61 18.69,-3.82 32.6,-3.82 6.68,0 13.11,0.55 19.38,1.65 6.28,1.1 11.89,3.01 16.67,5.98 4.77,2.86 8.59,6.97 11.6,12.15 2.86,5.18 4.37,11.86 4.37,20.19 0,17.18 -5.47,31.64 -16.37,43.24 -10.9,11.6 -24.71,20.89 -41.22,27.83 -16.52,6.83 -34.4,11.75 -53.63,14.76 -19.38,2.86 -37.41,4.37 -54.18,4.37 -22.1,-0.26 -43.13,-3.01 -63.18,-8.44 -19.93,-5.32 -37.52,-13.8 -52.94,-25.51 -15.27,-11.75 -27.42,-27.02 -36.45,-46 -9.14,-18.83 -13.66,-42.03 -13.66,-69.45l0 -93.5c0,-25.4 3.01,-46.8 8.99,-64.43 5.98,-17.58 13.77,-32.19 23.35,-43.94 9.69,-11.75 20.48,-20.89 32.34,-27.31 12,-6.53 24.15,-11.45 36.42,-14.61 12.3,-3.27 23.9,-5.18 34.95,-6.02 11.05,-0.81 20.59,-1.25 28.67,-1.25 26.91,0 49.81,2.46 68.9,7.23 19.13,4.77 34.95,11.05 47.76,18.69 12.81,7.78 22.94,16.67 30.43,26.76 7.38,10.1 12.96,20.59 16.78,31.39 3.67,10.79 5.98,21.7 7.08,32.63 1.1,11.05 1.65,21.44 1.65,30.98l0 24.71 -0.05 0.09z"/>
    <path class="fil0" d="M2357.44 189.87c-7.53,0 -15.56,0.7 -24.41,2.06 -8.74,1.25 -16.78,3.71 -24.15,7.38 -7.34,3.56 -13.51,8.59 -18.43,15.16 -4.92,6.53 -7.38,14.87 -7.38,24.96 0,4.52 0.7,8.99 2.2,13.66 1.51,4.52 3.27,8.99 5.43,13.8 2.06,4.63 4.37,9.14 6.97,13.77 2.61,4.52 4.92,8.88 6.97,13.11l139.2 194.19 -88.03 0c-9.29,0 -18.43,0.4 -27.28,1.36 -8.99,0.95 -16.92,3.16 -23.9,6.68 -6.97,3.41 -12.55,8.44 -16.78,15.16 -4.22,6.68 -6.42,15.71 -6.42,27.17 0,11.2 2.2,20.19 6.42,27.02 4.22,6.83 9.84,12 16.78,15.56 6.97,3.56 14.87,5.87 23.9,6.97 8.88,1.1 18.02,1.65 27.28,1.65l157.63 0c7.93,0 16.37,-0.55 25.11,-1.65 8.88,-1.1 16.92,-3.27 24.41,-6.83 7.53,-3.41 13.51,-8.33 18.43,-14.76 4.77,-6.42 7.08,-14.87 7.08,-25.51 0,-9.54 -2.31,-19.24 -6.97,-28.82 -4.63,-9.54 -9.84,-18.43 -15.42,-26.36l-138.25 -195 87.88 0c9.29,0 18.43,-0.4 27.17,-1.36 8.88,-0.95 16.78,-3.16 23.9,-6.68 6.97,-3.41 12.7,-8.44 16.92,-14.87 4.22,-6.57 6.42,-15.42 6.42,-26.61 0,-11.45 -2.2,-20.59 -6.42,-27.17 -4.22,-6.68 -9.95,-11.86 -16.92,-15.42 -7.08,-3.56 -15.01,-5.87 -23.9,-6.97 -8.74,-1.1 -17.88,-1.65 -27.17,-1.65l-158.29 0 0.02 0z"/>
    <path class="fil0" d="M2139.19 189.87l0 -70.56c0,-11.31 -0.55,-22.25 -1.76,-32.89 -1.25,-10.79 -3.96,-20.34 -8.19,-28.78 -4.22,-8.33 -10.35,-15.16 -18.28,-20.48 -8.04,-5.18 -18.83,-7.78 -32.34,-7.78 -13.25,0 -23.9,2.61 -31.94,7.78 -7.93,5.32 -13.91,12.15 -18.02,20.48 -4.22,8.44 -6.83,18.02 -8.04,28.78 -1.21,10.65 -1.76,21.59 -1.76,32.89l0 70.56 -32.74 0c-6.97,0 -13.91,0.29 -20.89,0.95 -6.83,0.7 -13.11,2.61 -18.54,5.87 -5.47,3.16 -9.84,7.89 -13.25,14.32 -3.27,6.42 -4.88,15.27 -4.88,26.76 0,10.9 1.62,19.49 4.88,25.92 3.41,6.42 7.78,11.2 13.25,14.32 5.43,3.27 11.75,5.32 18.54,6.28 6.97,0.95 13.91,1.36 20.89,1.36l32.74 0 0 139.75c0,5.32 -0.15,10.9 -0.55,16.92 -0.4,5.98 -1.91,11.45 -4.22,16.52 -2.46,5.07 -5.98,9.29 -10.79,12.55 -4.77,3.41 -11.6,5.07 -20.48,5.07 -9.54,0 -17.73,0.7 -24.56,2.17 -6.83,1.51 -12.41,4.07 -16.78,7.78 -4.37,3.82 -7.64,8.99 -9.84,15.67 -2.06,6.68 -3.12,15.16 -3.12,25.66 0,10.65 2.46,19.93 7.34,27.57 4.92,7.78 11.6,14.21 19.79,19.24 8.33,5.18 17.88,8.88 28.82,11.34 10.9,2.31 22.39,3.56 34.4,3.56 18.83,0 35.06,-2.06 48.46,-6.02 13.36,-3.96 24.56,-9.69 33.44,-16.92 8.88,-7.38 15.97,-16.23 21.14,-26.47 5.18,-10.24 8.99,-21.7 11.6,-34.54 2.46,-12.81 4.07,-26.61 4.77,-41.33 0.7,-14.87 0.95,-30.29 0.95,-46.55l0 -131.97 22.5 0c6.97,0 13.77,-0.4 20.59,-1.36 6.83,-0.95 12.96,-3.01 18.28,-6.28 5.32,-3.16 9.69,-7.93 12.96,-14.32 3.41,-6.42 5.07,-15.01 5.07,-25.92 0,-11.45 -1.65,-20.34 -5.07,-26.76 -3.27,-6.42 -7.64,-11.2 -12.96,-14.32 -5.32,-3.27 -11.45,-5.18 -18.28,-5.87 -6.83,-0.7 -13.66,-0.95 -20.59,-0.95l-22.5 0 -0.04 0z"/>
    <path class="fil0" d="M1626.46 236.28c12.81,0 24.15,4.11 34.1,12.15 10.1,8.19 18.83,22.8 26.61,43.79l42.44 112.73 6.42 0 44.79 -156.68c2.06,-7.49 4.77,-14.72 8.19,-21.7 3.27,-6.83 7.38,-13.11 12.15,-18.58 4.77,-5.43 10.5,-9.84 17.22,-13.11 6.68,-3.41 14.61,-5.07 24.01,-5.07 9.54,0 17.77,1.76 24.45,5.18 6.53,3.41 12,8.04 16.37,13.66 4.22,5.58 7.23,11.86 9.14,19.09 1.91,7.23 2.86,14.61 2.86,21.99 0,7.23 -1.1,14.21 -3.01,21.03 -2.06,6.83 -4.22,13.66 -6.68,20.59l-88.73 235.72c-6.13,15.71 -11.75,27.83 -16.63,36.16 -4.92,8.44 -9.69,14.61 -14.61,18.43 -4.77,3.82 -9.54,6.13 -14.32,6.83 -4.77,0.7 -9.84,0.95 -15.16,0.95 -5.87,0 -11.45,-0.26 -16.67,-0.95 -5.18,-0.7 -10.35,-3.01 -15.56,-6.83 -5.18,-3.82 -10.5,-9.95 -15.82,-18.43 -5.32,-8.33 -10.9,-20.48 -16.78,-36.16l-41.63 -143.97 -6.42 0 -43.13 143.97c-5.87,15.71 -11.34,27.83 -16.23,36.16 -4.92,8.44 -9.69,14.61 -14.32,18.43 -4.63,3.82 -9.4,6.13 -14.21,6.83 -4.77,0.7 -9.84,0.95 -15.16,0.95 -5.87,0 -11.45,-0.26 -16.67,-0.95 -5.18,-0.7 -10.35,-3.01 -15.56,-6.83 -5.18,-3.82 -10.5,-9.95 -15.82,-18.43 -5.32,-8.33 -10.9,-20.48 -16.78,-36.16l-89.53 -235.72c-2.46,-6.42 -4.63,-13.25 -6.68,-20.59 -1.91,-7.38 -3.01,-14.61 -3.01,-21.84 0,-7.64 1.1,-15.16 3.01,-22.39 2.06,-7.08 5.18,-13.51 9.69,-18.98 4.37,-5.47 10.1,-9.69 17.33,-12.96 7.23,-3.16 16.12,-4.77 26.76,-4.77 7.53,0 14.21,1.65 20.19,5.07 5.98,3.27 11.45,7.64 16.23,13.11 4.77,5.47 8.88,11.75 12.41,18.58 3.41,6.97 6.42,14.21 8.74,21.7l50.37 156.68 6.42 0 36.86 -112.73c6.68,-21.03 15.56,-35.61 26.61,-43.79 11.05,-8.04 22.94,-12.15 35.76,-12.15l-0.01 -0.01z"/>
    <path class="fil0" d="M1101.87 189.87l0 -70.56c0,-11.31 0.55,-22.25 1.76,-32.89 1.25,-10.79 3.96,-20.34 8.19,-28.78 4.22,-8.33 10.35,-15.16 18.28,-20.48 8.04,-5.18 18.83,-7.78 32.34,-7.78 13.25,0 23.9,2.61 31.94,7.78 7.89,5.32 13.91,12.15 18.02,20.48 4.22,8.44 6.83,18.02 8.04,28.78 1.25,10.65 1.76,21.59 1.76,32.89l0 70.56 32.74 0c6.97,0 13.91,0.29 20.89,0.95 6.83,0.7 13.11,2.61 18.58,5.87 5.47,3.16 9.84,7.89 13.25,14.32 3.27,6.42 4.92,15.27 4.92,26.76 0,10.9 -1.62,19.49 -4.92,25.92 -3.41,6.42 -7.78,11.2 -13.25,14.32 -5.47,3.27 -11.75,5.32 -18.58,6.28 -6.97,0.95 -13.91,1.36 -20.89,1.36l-32.74 0 0 139.75c0,5.32 0.15,10.9 0.55,16.92 0.4,5.98 1.91,11.45 4.22,16.52 2.46,5.07 6.02,9.29 10.79,12.55 4.77,3.41 11.6,5.07 20.48,5.07 9.54,0 17.73,0.7 24.56,2.17 6.83,1.51 12.41,4.07 16.78,7.78 4.37,3.82 7.64,8.99 9.84,15.67 2.06,6.68 3.16,15.16 3.16,25.66 0,10.65 -2.46,19.93 -7.38,27.57 -4.92,7.78 -11.6,14.21 -19.79,19.24 -8.33,5.18 -17.88,8.88 -28.78,11.34 -10.9,2.31 -22.39,3.56 -34.4,3.56 -18.83,0 -35.06,-2.06 -48.46,-6.02 -13.36,-3.96 -24.56,-9.69 -33.44,-16.92 -8.88,-7.38 -15.97,-16.23 -21.14,-26.47 -5.18,-10.24 -8.99,-21.7 -11.6,-34.54 -2.46,-12.81 -4.11,-26.61 -4.77,-41.33 -0.7,-14.87 -0.95,-30.29 -0.95,-46.55l0 -131.97 -22.5 0c-6.97,0 -13.77,-0.4 -20.59,-1.36 -6.83,-0.95 -12.96,-3.01 -18.28,-6.28 -5.32,-3.16 -9.69,-7.93 -12.96,-14.32 -3.41,-6.42 -5.07,-15.01 -5.07,-25.92 0,-11.45 1.65,-20.34 5.07,-26.76 3.27,-6.42 7.64,-11.2 12.96,-14.32 5.32,-3.27 11.45,-5.18 18.28,-5.87 6.83,-0.7 13.66,-0.95 20.59,-0.95l22.5 0z"/>
   </g>
  </g>
 </g>
</svg>
